<?xml version="1.0" encoding="UTF-8" standalone="no"?>
<svg
   width="1447"
   height="1447"
   viewBox="0 0 1447 1447"
   fill="none"
   version="1.1"
   id="svg40"
   sodipodi:docname="fullstackish.svg"
   inkscape:version="1.2.1 (9c6d41e, 2022-07-14)"
   xmlns:inkscape="http://www.inkscape.org/namespaces/inkscape"
   xmlns:sodipodi="http://sodipodi.sourceforge.net/DTD/sodipodi-0.dtd"
   xmlns="http://www.w3.org/2000/svg"
   xmlns:svg="http://www.w3.org/2000/svg">
  <defs
     id="defs44" />
  <sodipodi:namedview
     id="namedview42"
     pagecolor="#ffffff"
     bordercolor="#000000"
     borderopacity="0.25"
     inkscape:showpageshadow="2"
     inkscape:pageopacity="0.0"
     inkscape:pagecheckerboard="0"
     inkscape:deskcolor="#d1d1d1"
     showgrid="false"
     showguides="true"
     inkscape:zoom="0.60608155"
     inkscape:cx="810.12201"
     inkscape:cy="944.59236"
     inkscape:window-width="1873"
     inkscape:window-height="1027"
     inkscape:window-x="1920"
     inkscape:window-y="25"
     inkscape:window-maximized="1"
     inkscape:current-layer="svg40" />
  <path
     d="M349.882 964C319.496 964 297.167 956.863 282.894 942.588C268.622 928.774 261.486 903.219 261.486 865.921C261.486 853.488 261.716 842.437 262.176 832.767C263.097 823.098 264.018 813.888 264.939 805.14C265.859 795.93 266.55 786.951 267.01 778.202C267.931 768.993 268.392 758.863 268.392 747.812C268.392 741.826 267.241 735.84 264.939 729.853C263.097 723.867 259.874 718.572 255.27 713.967C250.666 708.902 244.451 704.988 236.624 702.226C229.258 699.002 220.05 697.16 209 696.7V637.3C220.05 636.84 229.258 635.228 236.624 632.465C244.451 629.242 250.666 625.328 255.27 620.723C259.874 615.658 263.097 610.133 264.939 604.147C267.241 598.16 268.392 592.174 268.392 586.188C268.392 575.137 267.931 565.237 267.01 556.488C266.55 547.279 265.859 538.3 264.939 529.551C264.018 520.342 263.097 510.902 262.176 501.233C261.716 491.563 261.486 480.512 261.486 468.079C261.486 430.781 268.622 405.226 282.894 391.412C297.167 377.137 319.496 370 349.882 370H393.39V423.874H380.269C365.996 423.874 356.328 427.328 351.264 434.235C346.199 440.681 343.667 453.344 343.667 472.223C343.667 491.102 344.127 509.291 345.048 526.788C345.969 544.286 346.429 563.626 346.429 584.807C346.429 611.053 342.286 630.163 333.999 642.135C325.711 653.647 312.82 661.474 295.325 665.619V668.381C312.82 672.526 325.711 680.584 333.999 692.556C342.286 704.067 346.429 722.946 346.429 749.193C346.429 770.374 345.969 789.714 345.048 807.212C344.127 824.709 343.667 842.898 343.667 861.777C343.667 880.656 346.199 893.319 351.264 899.765C356.328 906.672 365.996 910.126 380.269 910.126H393.39V964H349.882Z"
     fill="white"
     id="path4"
     style="fill:#35b9c4;fill-opacity:1" />
  <path
     d="M478.162 859.014V408.679H761.998V494.326H579.68V598.621H735.755V684.267H579.68V859.014H478.162Z"
     fill="white"
     id="path6"
     style="fill:#35b9c4;fill-opacity:1" />
  <path
     d="M871.399 699.463L856.896 488.109L853.443 396.247H955.652L952.199 488.109L937.697 699.463H871.399ZM904.548 867.302C887.053 867.302 872.32 861.316 860.349 849.344C848.839 836.912 843.084 821.716 843.084 803.758C843.084 785.34 848.839 770.144 860.349 758.172C872.32 745.74 887.053 739.523 904.548 739.523C922.043 739.523 936.546 745.74 948.056 758.172C960.026 770.144 966.011 785.34 966.011 803.758C966.011 821.716 960.026 836.912 948.056 849.344C936.546 861.316 922.043 867.302 904.548 867.302Z"
     fill="white"
     id="path8"
     style="fill:#35b9c4;fill-opacity:1" />
  <path
     d="M1053.61 964V910.126H1066.73C1081 910.126 1090.67 906.672 1095.74 899.765C1100.8 893.319 1103.33 880.656 1103.33 861.777C1103.33 842.898 1102.87 824.709 1101.95 807.212C1101.03 789.714 1100.57 770.374 1100.57 749.193C1100.57 722.946 1104.71 704.067 1113 692.556C1121.29 680.584 1134.18 672.526 1151.67 668.381V665.619C1134.18 661.474 1121.29 653.647 1113 642.135C1104.71 630.163 1100.57 611.053 1100.57 584.807C1100.57 563.626 1101.03 544.286 1101.95 526.788C1102.87 509.291 1103.33 491.102 1103.33 472.223C1103.33 453.344 1100.8 440.681 1095.74 434.235C1090.67 427.328 1081 423.874 1066.73 423.874H1053.61V370H1097.12C1127.5 370 1149.83 377.137 1164.11 391.412C1178.38 405.226 1185.51 430.781 1185.51 468.079C1185.51 480.512 1185.05 491.563 1184.13 501.233C1183.67 510.902 1182.98 520.342 1182.06 529.551C1181.14 538.3 1180.22 547.279 1179.3 556.488C1178.84 565.237 1178.61 575.137 1178.61 586.188C1178.61 592.174 1179.53 598.16 1181.37 604.147C1183.67 610.133 1187.13 615.658 1191.73 620.723C1196.33 625.328 1202.32 629.242 1209.69 632.465C1217.51 635.228 1226.95 636.84 1238 637.3V696.7C1226.95 697.16 1217.51 699.002 1209.69 702.226C1202.32 704.988 1196.33 708.902 1191.73 713.967C1187.13 718.572 1183.67 723.867 1181.37 729.853C1179.53 735.84 1178.61 741.826 1178.61 747.812C1178.61 758.863 1178.84 768.993 1179.3 778.202C1180.22 786.951 1181.14 795.93 1182.06 805.14C1182.98 813.888 1183.67 823.098 1184.13 832.767C1185.05 842.437 1185.51 853.488 1185.51 865.921C1185.51 903.219 1178.38 928.774 1164.11 942.588C1149.83 956.863 1127.5 964 1097.12 964H1053.61Z"
     fill="white"
     id="path10"
     style="fill:#35b9c4;fill-opacity:1" />
</svg>
